<svg width="118" height="19" viewBox="0 0 118 19" fill="none" xmlns="http://www.w3.org/2000/svg">
<path d="M5.0625 1.09375L5.20312 3.04688C6.41146 1.53646 8.03125 0.78125 10.0625 0.78125C11.8542 0.78125 13.1875 1.30729 14.0625 2.35938C14.9375 3.41146 15.3854 4.98438 15.4062 7.07812V18H10.8906V7.1875C10.8906 6.22917 10.6823 5.53646 10.2656 5.10938C9.84896 4.67188 9.15625 4.45312 8.1875 4.45312C6.91667 4.45312 5.96354 4.99479 5.32812 6.07812V18H0.8125V1.09375H5.0625Z" fill="#E1E1E6"/>
<path d="M28.6406 18C28.4323 17.5938 28.2812 17.0885 28.1875 16.4844C27.0938 17.7031 25.6719 18.3125 23.9219 18.3125C22.2656 18.3125 20.8906 17.8333 19.7969 16.875C18.7135 15.9167 18.1719 14.7083 18.1719 13.25C18.1719 11.4583 18.8333 10.0833 20.1562 9.125C21.4896 8.16667 23.4115 7.68229 25.9219 7.67188H28V6.70312C28 5.92188 27.7969 5.29688 27.3906 4.82812C26.9948 4.35938 26.3646 4.125 25.5 4.125C24.7396 4.125 24.1406 4.30729 23.7031 4.67188C23.276 5.03646 23.0625 5.53646 23.0625 6.17188H18.5469C18.5469 5.19271 18.849 4.28646 19.4531 3.45312C20.0573 2.61979 20.9115 1.96875 22.0156 1.5C23.1198 1.02083 24.3594 0.78125 25.7344 0.78125C27.8177 0.78125 29.4688 1.30729 30.6875 2.35938C31.9167 3.40104 32.5312 4.86979 32.5312 6.76562V14.0938C32.5417 15.6979 32.7656 16.9115 33.2031 17.7344V18H28.6406ZM24.9062 14.8594C25.5729 14.8594 26.1875 14.7135 26.75 14.4219C27.3125 14.1198 27.7292 13.7188 28 13.2188V10.3125H26.3125C24.0521 10.3125 22.849 11.0938 22.7031 12.6562L22.6875 12.9219C22.6875 13.4844 22.8854 13.9479 23.2812 14.3125C23.6771 14.6771 24.2188 14.8594 24.9062 14.8594Z" fill="#E1E1E6"/>
<path d="M36.2344 15.7812C36.2344 15.0625 36.474 14.4792 36.9531 14.0312C37.4427 13.5833 38.0521 13.3594 38.7812 13.3594C39.5208 13.3594 40.1302 13.5833 40.6094 14.0312C41.099 14.4792 41.3438 15.0625 41.3438 15.7812C41.3438 16.4896 41.1042 17.0677 40.625 17.5156C40.1458 17.9531 39.5312 18.1719 38.7812 18.1719C38.0417 18.1719 37.4323 17.9531 36.9531 17.5156C36.474 17.0677 36.2344 16.4896 36.2344 15.7812Z" fill="#E1E1E6"/>
<path d="M49.4688 1.09375L49.6094 3.04688C50.8177 1.53646 52.4375 0.78125 54.4688 0.78125C56.2604 0.78125 57.5938 1.30729 58.4688 2.35938C59.3438 3.41146 59.7917 4.98438 59.8125 7.07812V18H55.2969V7.1875C55.2969 6.22917 55.0885 5.53646 54.6719 5.10938C54.2552 4.67188 53.5625 4.45312 52.5938 4.45312C51.3229 4.45312 50.3698 4.99479 49.7344 6.07812V18H45.2188V1.09375H49.4688Z" fill="#E1E1E6"/>
<path d="M71.0312 18.3125C68.5521 18.3125 66.5312 17.5521 64.9688 16.0312C63.4167 14.5104 62.6406 12.4844 62.6406 9.95312V9.51562C62.6406 7.81771 62.9688 6.30208 63.625 4.96875C64.2812 3.625 65.2083 2.59375 66.4062 1.875C67.6146 1.14583 68.9896 0.78125 70.5312 0.78125C72.8438 0.78125 74.6615 1.51042 75.9844 2.96875C77.3177 4.42708 77.9844 6.49479 77.9844 9.17188V11.0156H67.2188C67.3646 12.1198 67.8021 13.0052 68.5312 13.6719C69.2708 14.3385 70.2031 14.6719 71.3281 14.6719C73.0677 14.6719 74.4271 14.0417 75.4062 12.7812L77.625 15.2656C76.9479 16.224 76.0312 16.974 74.875 17.5156C73.7188 18.0469 72.4375 18.3125 71.0312 18.3125ZM70.5156 4.4375C69.6198 4.4375 68.8906 4.73958 68.3281 5.34375C67.776 5.94792 67.4219 6.8125 67.2656 7.9375H73.5469V7.57812C73.526 6.57812 73.2552 5.80729 72.7344 5.26562C72.2135 4.71354 71.474 4.4375 70.5156 4.4375Z" fill="#E1E1E6"/>
<path d="M95.2656 11.8594L97.4844 1.09375H101.844L97.5312 18H93.75L90.5469 7.35938L87.3438 18H83.5781L79.2656 1.09375H83.625L85.8281 11.8438L88.9219 1.09375H92.1875L95.2656 11.8594Z" fill="#E1E1E6"/>
<path d="M113.25 13.3281C113.25 12.776 112.974 12.3438 112.422 12.0312C111.88 11.7083 111.005 11.4219 109.797 11.1719C105.776 10.3281 103.766 8.61979 103.766 6.04688C103.766 4.54688 104.385 3.29688 105.625 2.29688C106.875 1.28646 108.505 0.78125 110.516 0.78125C112.661 0.78125 114.375 1.28646 115.656 2.29688C116.948 3.30729 117.594 4.61979 117.594 6.23438H113.078C113.078 5.58854 112.87 5.05729 112.453 4.64062C112.036 4.21354 111.385 4 110.5 4C109.74 4 109.151 4.17188 108.734 4.51562C108.318 4.85938 108.109 5.29688 108.109 5.82812C108.109 6.32812 108.344 6.73438 108.812 7.04688C109.292 7.34896 110.094 7.61458 111.219 7.84375C112.344 8.0625 113.292 8.3125 114.062 8.59375C116.448 9.46875 117.641 10.9844 117.641 13.1406C117.641 14.6823 116.979 15.9323 115.656 16.8906C114.333 17.8385 112.625 18.3125 110.531 18.3125C109.115 18.3125 107.854 18.0625 106.75 17.5625C105.656 17.0521 104.797 16.3594 104.172 15.4844C103.547 14.599 103.234 13.6458 103.234 12.625H107.516C107.557 13.4271 107.854 14.0417 108.406 14.4688C108.958 14.8958 109.698 15.1094 110.625 15.1094C111.49 15.1094 112.141 14.9479 112.578 14.625C113.026 14.2917 113.25 13.8594 113.25 13.3281Z" fill="#E1E1E6"/>
</svg>
